<?xml version="1.0" encoding="UTF-8"?>
<svg id="Livello_2" data-name="Livello 2" xmlns="http://www.w3.org/2000/svg" viewBox="0 0 950 599.16">
  <g id="Livello_1-2" data-name="Livello 1">
    <g>
      <g>
        <path d="m0,569.4c23.87-30.22,46.92-67.3,69.14-111.25L201.2,199c-13.99-54.94-27.08-93.53-39.29-115.78-12.21-22.25-30.93-33.37-56.16-33.37-23.33,0-45.53,11.53-66.66,34.61l-20.17-22.25C56.78,20.74,94.23,0,131.26,0c25.78,0,45.81,7.35,60.07,22.04,14.25,14.69,26.18,38.11,35.8,70.24,9.59,32.14,23.17,94.22,40.73,186.23,22.77,120.04,40.53,195.78,53.29,227.22,12.75,31.45,27.91,47.18,45.47,47.18,12.62,0,24.27-4.39,34.97-13.18l15.63,24.72c-27.16,21.15-51.57,31.73-73.23,31.73-30.73,0-52.67-15.79-65.84-47.38-13.16-31.59-31.54-116.6-55.13-255.04h-2.46c-46.64,94.76-92.32,199.97-137.02,302.42H0v-26.78Z" style="stroke-width: 0px;"/>
        <path d="m614.43,599.16h-67.11l-108.89-314.91-84.71,207.01c-8.73,21.37-13.16,38.14-13.16,49.85v5.4l-51.68-32.5,138.9-324.72h51.69l134.97,409.88Zm-62.86-5.96h54.62l-131.04-397.95h-43.44l-135.35,316.42,38.48,24.2c1.05-11.98,5.53-27.71,13.36-46.86l90.69-221.63,112.67,325.83Z" style="stroke-width: 0px;"/>
      </g>
      <polygon points="748.61 593.2 670.41 361.28 765.51 361.28 765.51 355.32 668.4 355.32 614.43 195.25 766.15 195.25 766.15 189.28 553.74 189.28 688.03 597.11 688.7 599.16 950 599.16 950 593.2 748.61 593.2" style="stroke-width: 0px;"/>
    </g>
  </g>
</svg>